<svg xmlns="http://www.w3.org/2000/svg" xmlns:xlink="http://www.w3.org/1999/xlink" xml:space="preserve" width="1920" height="1080" viewBox="0 0 508 285.75"><defs><linearGradient id="b"><stop offset=".67" style="stop-color:#1c1c1c;stop-opacity:1"/><stop offset="1" style="stop-color:#2e2e2e;stop-opacity:1"/></linearGradient><linearGradient xlink:href="#b" id="c" x1="433.605" x2="74.395" y1="322.48" y2="-36.73" gradientUnits="userSpaceOnUse"/><pattern xlink:href="#a" id="d" width="94" height="94" x="0" y="0" patternTransform="matrix(.2 0 0 .2 307.922 -100.786)" preserveAspectRatio="xMidYMid"/><pattern id="a" width="10" height="10" x="0" y="0" patternTransform="translate(307.922 -100.786)" patternUnits="userSpaceOnUse" preserveAspectRatio="xMidYMid" style="fill:#333"><circle cx="5" cy="5" r="5" style="display:inline;fill-opacity:1;stroke-width:6;stroke-linecap:square;paint-order:markers fill stroke;stop-color:#000"/></pattern></defs><path d="M0 0h508v285.75H0z" style="fill:url(#c);fill-opacity:1;fill-rule:nonzero;stroke-width:16.9333;stroke-linecap:round;stroke-linejoin:round"/><rect width="508" height="285.75" rx="0" ry="0" style="fill:url(#d);fill-opacity:1;fill-rule:nonzero;stroke-width:16.9333;stroke-linecap:round;stroke-linejoin:round"/><g style="stroke-width:2.2129" transform="matrix(.4519 0 0 .4519 61.801 87.942)"><rect width="135.467" height="135.467" rx="27.537" ry="27.537" style="fill:#1b5e20;fill-opacity:1;fill-rule:nonzero;stroke:#2e7d32;stroke-width:2.34198;stroke-linecap:round;stroke-linejoin:round;stroke-dasharray:none;stroke-opacity:1"/><g style="fill:#dcedc8;fill-opacity:1;stroke-width:2.84304"><path d="M98.822 71.025a4.234 4.234 0 0 0-1.654.319l-2.891 1.191c-.062.102-.12.205-.182.307-2.594 4.275-5.353 8.414-8.022 12.23l10.28-4.236 12.797 34.084-15.697 6.468-11.495-30.615a342.421 342.421 0 0 1-6.045 7.985l8.095 21.562-20.555-6.469-7.108-18.93c-4.381-5.766-10.037-13.598-15.106-21.991-.15-.249-.294-.5-.443-.749L19.299 81.04a4.234 4.234 0 0 0-2.352 5.402l15.776 42.014a4.234 4.234 0 0 0 5.574 2.426l22.113-9.112 29.344 9.235a4.234 4.234 0 0 0 2.191-.094 4.233 4.233 0 0 0 .569.02 4.233 4.233 0 0 0 .074-.047 4.234 4.234 0 0 0 .05-.002l23.53-9.696a4.234 4.234 0 0 0 2.351-5.402L102.744 73.77a4.234 4.234 0 0 0-3.922-2.745zm-44.404 2.933c2.742 4.155 5.48 7.985 8.001 11.394L70.835 88a294.114 294.114 0 0 0 6.078-8.311l-1.855.764zm-12.405 6.878 12.798 34.084-15.698 6.468-12.797-34.083Z" style="fill:#dcedc8;fill-opacity:1;stroke-width:2.84304;stroke-linecap:round;stroke-linejoin:round" transform="translate(15.012 15.012) scale(.77836)"/><g style="fill:#dcedc8;fill-opacity:1;stroke-width:2.84304"><path d="M112.98-11.053c-20.307.046-36.812 16.894-36.859 37.463-.021 9.292 5.401 20.025 11.654 30.38 6.254 10.353 13.555 20.066 18.016 25.757a3.705 3.705 0 0 0 .006.01c3.498 4.436 10.484 4.413 13.984-.016a3.705 3.705 0 0 0 .006-.01c4.486-5.71 11.83-15.454 18.13-25.834 6.298-10.38 11.767-21.128 11.788-30.42.047-20.569-16.417-37.376-36.724-37.33zm.018 7.408c16.227-.036 29.337 13.27 29.299 29.905-.014 6.045-4.676 16.642-10.715 26.594-6.037 9.948-13.236 19.519-17.617 25.095-.75.947-1.622.943-2.35.02-4.355-5.556-11.508-15.092-17.498-25.01-5.992-9.922-10.601-20.486-10.588-26.531C83.567 9.794 96.771-3.608 113-3.645Z" style="fill:#dcedc8;fill-opacity:1;stroke-width:2.84304;stroke-linecap:round;stroke-linejoin:round" transform="translate(-20.153 26.937) scale(.77836)"/><path d="M126.162 25.126h-26.52V13.459h26.52m-3.315 25.667a3.315 3.5 0 0 1-3.315-3.5 3.315 3.5 0 0 1 3.315-3.5 3.315 3.5 0 0 1 3.315 3.5 3.315 3.5 0 0 1-3.315 3.5m-19.89 0a3.315 3.5 0 0 1-3.315-3.5 3.315 3.5 0 0 1 3.315-3.5 3.315 3.5 0 0 1 3.315 3.5 3.315 3.5 0 0 1-3.315 3.5m-7.735-2.333c0 2.053.862 3.897 2.21 5.18v4.153a2.21 2.333 0 0 0 2.21 2.334h2.21a2.21 2.333 0 0 0 2.21-2.334v-2.333h17.68v2.333a2.21 2.333 0 0 0 2.21 2.334h2.21a2.21 2.333 0 0 0 2.21-2.334v-4.153a7.141 7.141 0 0 0 2.21-5.18V13.459c0-8.167-7.912-9.334-17.68-9.334s-17.68 1.167-17.68 9.334z" style="fill:#dcedc8;fill-opacity:1;stroke-width:.752217" transform="translate(-20.153 26.937) scale(.77836)"/></g></g></g><path d="M167.485 83.076v28.651h-5.746V93.092l-7.676 18.635h-4.35l-7.718-18.635v18.635h-5.747v-28.65h6.526l9.113 21.303 9.112-21.304zm2.076 17.199q0-3.448 1.355-6.116 1.395-2.668 3.735-4.105 2.38-1.436 5.295-1.436 2.545 0 4.434 1.026 1.928 1.026 3.078 2.586v-3.243h5.787v22.74h-5.788v-3.324q-1.107 1.6-3.078 2.668-1.93 1.026-4.474 1.026-2.873 0-5.254-1.478-2.34-1.477-3.735-4.145-1.355-2.71-1.355-6.199zm17.897.082q0-2.093-.82-3.57-.822-1.52-2.217-2.3-1.397-.82-2.997-.82-1.6 0-2.955.78t-2.217 2.298q-.821 1.478-.821 3.53 0 2.052.82 3.613.863 1.518 2.217 2.339 1.396.82 2.956.82 1.6 0 2.996-.78 1.396-.82 2.217-2.297.82-1.52.82-3.613zm15.047-8.086q1.107-1.56 3.037-2.586 1.97-1.067 4.474-1.067 2.915 0 5.254 1.436 2.38 1.437 3.735 4.105 1.396 2.627 1.396 6.116 0 3.49-1.396 6.198-1.354 2.668-3.735 4.146-2.34 1.478-5.254 1.478-2.504 0-4.433-1.027-1.888-1.025-3.078-2.586v14.08h-5.747V88.987h5.747zm12.026 8.004q0-2.052-.862-3.53-.82-1.519-2.216-2.298-1.355-.78-2.956-.78-1.56 0-2.955.82-1.355.78-2.216 2.3-.821 1.517-.821 3.57 0 2.052.82 3.571.862 1.52 2.217 2.34 1.396.78 2.955.78 1.601 0 2.956-.821 1.395-.82 2.216-2.34.862-1.519.862-3.612zm24.118 11.452-10.426-12.765v12.765h-5.746v-28.65h5.746v12.847l10.426-12.847h6.938l-11.822 14.202 12.15 14.449zm19.028.37q-3.283 0-5.91-1.437-2.627-1.477-4.146-4.146-1.477-2.668-1.477-6.157t1.518-6.157q1.56-2.668 4.228-4.105 2.668-1.477 5.952-1.477 3.283 0 5.951 1.477 2.669 1.437 4.187 4.105 1.56 2.669 1.56 6.157 0 3.49-1.601 6.157-1.56 2.669-4.269 4.146-2.668 1.437-5.992 1.437zm0-5.008q1.56 0 2.915-.739 1.396-.78 2.216-2.299.821-1.518.821-3.694 0-3.243-1.724-4.966-1.683-1.765-4.145-1.765-2.464 0-4.146 1.765-1.642 1.723-1.642 4.966 0 3.243 1.6 5.008 1.642 1.724 4.105 1.724zm42.22-18.43q4.187 0 6.731 2.586 2.587 2.545 2.587 7.142v13.34h-5.747v-12.56q0-2.668-1.355-4.064-1.354-1.436-3.694-1.436t-3.735 1.436q-1.354 1.396-1.354 4.064v12.56h-5.747v-12.56q0-2.668-1.354-4.064-1.355-1.436-3.695-1.436-2.38 0-3.776 1.436-1.355 1.396-1.355 4.064v12.56h-5.746v-22.74h5.746v2.75q1.108-1.436 2.833-2.257 1.765-.821 3.858-.821 2.668 0 4.761 1.149 2.094 1.108 3.243 3.201 1.108-1.97 3.202-3.16 2.134-1.19 4.597-1.19z" aria-label="MapKom" style="font-weight:600;font-size:92.6042px;font-family:Poppins;-inkscape-font-specification:&quot;Poppins Semi-Bold&quot;;letter-spacing:-4.7625px;fill:#dcedc8;stroke-width:16.9333;stroke-linecap:round;stroke-linejoin:round" transform="translate(-.53 21.148)"/><text xml:space="preserve" x="72.728" y="179.367" style="font-weight:600;font-size:16.9333px;font-family:Poppins;-inkscape-font-specification:&quot;Poppins Semi-Bold&quot;;text-align:start;letter-spacing:0;writing-mode:lr-tb;direction:ltr;text-anchor:start;fill:#dcedc8;fill-opacity:1;stroke:none;stroke-width:1.05833;stroke-linecap:round;stroke-linejoin:round"><tspan x="72.728" y="179.367" style="font-size:16.9333px;fill:#dcedc8;fill-opacity:1;stroke:none;stroke-width:1.05833">Public transport on a map</tspan></text><path d="M185.803 195.854c-.393 1.037-.573 2.14-.704 3.237-.005.368-.108.874.14 1.202.08.105.21.157.316.236.28.326.74-.07.46-.395.097-.25-.088-.666.03-.922.137-1.004.295-2.01.622-2.974.272-.611-.593-.995-.864-.384zM186.888 192.091c-.011.51-.036.248.09.787-.042.292.37.352.413.06.272-.464.171-.23.317-.698.106-.58-.714-.729-.82-.149zM188.802 196.407c-.045.742-.163 1.476-.252 2.214-.023.236-.058.47-.096.704-.006.038-.007.076-.012.114 0 .012-.017.035-.005.035.295-.008.59-.04.884-.06a4.969 4.969 0 0 1 .07-1.244 5.728 5.728 0 0 1 .653-1.633 1.15 1.15 0 0 1 .766-.569c.289-.063.365-.031.58.138.198.214.302.473.317.762-.011.572-.155 1.133-.25 1.696-.092.624-.202 1.249-.038 1.867.246.338.071.23.58.21.094.057.175-.076.081-.133.197-.183.157-.085.195-.248-.031-.514.09-1.028.136-1.537.109-.656.281-1.318.214-1.988-.099-.52-.315-.984-.74-1.321-.42-.287-.774-.378-1.278-.262-.563.147-1 .453-1.305.96-.342.598-.614 1.24-.755 1.918-.078.473-.135.95-.118 1.43.298.047.593.116.893.139.024.002.007-.047.01-.07.003-.038.01-.076.01-.115.01-.231.016-.463.052-.693.091-.77.214-1.538.233-2.314 0-.583-.825-.583-.825 0zM198.608 193.891a59.675 59.675 0 0 0-.847 3.066 35.507 35.507 0 0 0-.544 2.87c-.067.54-.324 1.314.57 1.346.14.005.23-.158.345-.237.39-.601.824-1.165 1.285-1.712-.06.051.418-.395.402-.261-.019.148-.19-.061-.1.14.212.425.39.866.614 1.285.31.51.756.831 1.328.974.664.023.992-.337 1.291-.877.251-.569.359-1.189.453-1.8.123-.806.055-1.62.013-2.429-.031-.443-.038-.888-.078-1.33-.008-.086.01-.18-.029-.256-.045-.087-.139-.138-.209-.207-.006-.35-.5-.34-.494.01-.067.072-.16.127-.202.217-.036.08-.014.175-.017.263-.017.452.012.904.027 1.355.038.742.104 1.487-.002 2.226-.075.502-.157 1.01-.332 1.487a2.634 2.634 0 0 1-.244.405c-.291.008-.539-.266-.697-.478-.255-.457-.442-.95-.722-1.393-.07-.08-.127-.174-.212-.238-.538-.403-1.007-.009-1.388.383a26.868 26.868 0 0 0-1.318 1.594c.293-.09.2-.104.599.245.027.024-.028.105.008.108.036.003-.004-.072-.001-.108.006-.082.015-.164.027-.246.014-.105.033-.209.05-.313a46.8 46.8 0 0 1 .521-2.803c.23-1.015.51-2.018.767-3.027.183-.61-.68-.87-.864-.259zM204.285 199.197c.058.64.087 1.282.119 1.924.017.404-.018.296.995.075.074-.016.05-.142.073-.214.1-.304.2-.608.303-.91.221-.705.53-1.362.944-1.971.056-.172.231-.28.297-.447.026-.068.019-.144.028-.216.32-.236-.016-.688-.335-.451-.115.02-.24.014-.346.063-.14.065-.383.366-.477.473a7.725 7.725 0 0 0-1.076 2.223c-.026.08-.356 1.106-.343 1.112.278.137.594.177.897.245.016.004-.008-.032-.013-.048-.059-.647-.08-1.296-.143-1.942-.059-.653-.982-.569-.923.084zM208.62 198.577c-.459.583-.84 1.284-.898 2.038-.011.152.006.305.01.458.165.832.69 1.425 1.575 1.489.17.012.338-.02.507-.03a3.044 3.044 0 0 0 1.988-1.46c.087-.152.15-.316.225-.473.261-.795.32-1.701-.073-2.47-.072-.14-.174-.264-.262-.396-.576-.613-1.351-.906-2.079-.315-.118.096-.2.23-.299.344l-.01.568c-.055.073.049.151.104.078l.436-.028c.347-.167.615-.31.935-.004.425.531.444 1.12.253 1.76-.269.602-.669 1.111-1.328 1.302-.434.084-.739.039-.903-.414-.062-.641.241-1.247.61-1.755.489-.56-.301-1.25-.79-.692zM215.3 196.153c-.58.571-1.015 1.25-1.369 1.978-.249.633-.51 1.327-.483 2.021.005.139.037.275.056.413.112.372.33.838.764.934.16.035.327-.022.49-.032.362.091.49-.42.13-.511-.12-.183-.272-.323-.311-.545-.101-.615.132-1.24.34-1.811.289-.626.632-1.216 1.11-1.72.513-.514-.213-1.24-.726-.727zM218.876 195.112a15.94 15.94 0 0 0-.675 2.888c-.044.75-.245 1.545-.08 2.295.027.124.081.241.122.362.18.286.467.628.862.567.147-.023.27-.126.405-.189.29-.039.234-.447-.055-.409-.107-.092-.225-.18-.3-.302-.262-.597.004-1.549.025-2.183.134-.942.332-1.87.594-2.784.173-.635-.725-.88-.898-.245zM217.723 194.776c1.007-.216 2.037-.288 3.053-.446l.492-.15c.467-.022.435-.684-.032-.661l-.521-.1a14.146 14.146 0 0 0-3.227.34c-.719.165-.484 1.183.235 1.017zM221.248 198.576c-.232.609-.346 1.329.096 1.881.092.117.222.198.333.297.137.061.265.143.409.184.567.161 1.28.035 1.771-.285.145-.094.264-.222.396-.333.521-.635.707-1.484.276-2.229-.08-.139-.197-.254-.295-.381-.401-.347-1.038-.708-1.595-.643-.487.057-.54.166-.91.438-.155.233-.407.51-.356.831.025.162.156.287.234.43-.002.061.084.064.086.002.21-.166.385-.342.569-.536.02-.015.25-.193.306-.203.334-.06.68.133.945.303.426.387.452.823.13 1.297-.063.06-.117.133-.19.183-.33.228-.799.31-1.177.181-.424-.208-.263-.662-.142-1.024.278-.626-.607-1.019-.886-.393z" style="fill:#dcedc8;fill-opacity:1;stroke:none;stroke-width:1.05833;stroke-linecap:round;stroke-linejoin:round" transform="translate(1.058 -3.281)"/><path d="M224.306 198.383c-.153.77-.227 1.55-.097 2.326.159.539.482 1.07 1.115 1.075.12.001.237-.04.355-.06l.395-.241c.472-.211.173-.88-.299-.668l-.185.02c-.04-.005-.081-.012-.122-.014-.02 0-.036.037-.055.029-.112-.054-.155-.222-.201-.321-.13-.652-.02-1.318.083-1.966.127-.699-.862-.879-.99-.18zM227.06 197.902c-.318.725-.494 1.484-.423 2.275.128.646.561 1.157 1.283.901.12-.042.22-.128.329-.192.509-.449.892-1.018 1.222-1.606.176-.366.346-.356-.648-.169-.037.007.02.074.027.112.09.46-.06-.212.082.402.143.594.545 1.026 1.034 1.362.41.232.942.333 1.392.145.105-.044.198-.112.296-.168.577-.468.663-1.18.678-1.877-.021-.824-.295-1.58-.702-2.286l-.222-.235c-.27-.49-.964-.11-.694.381l.043.248c.203.615.46 1.221.49 1.877 0 .332 0 .713-.185 1.002-.116.173-.398.164-.57.098-.302-.172-.547-.432-.65-.77-.018-.068-.143-.62-.167-.63-.815-.34-.78-.363-.99.106-.212.467-.454.928-.892 1.224-.035.02-.074.034-.105.06-.023.019.044.276-.052.08-.025-.053-.036-.11-.054-.165-.082-.621.112-1.22.331-1.796.268-.603-.585-.982-.853-.38zM233.852 200.108c.12.47.074.96.068 1.439-.12.456.524.626.645.17.062-.133.142-.26.188-.4.157-.482.078-1.016-.05-1.493-.2-.602-1.052-.318-.851.284zM237.419 194.743c-.036 1.273-.035 2.546-.039 3.82-.006 1.113-.15 2.227-.05 3.34.047.364-.037.212.264.448-.014.302.412.322.426.02.322-.21.225-.065.305-.423.205-1.115.18-2.256.228-3.386-.004-1.273-.003-2.546-.039-3.819 0-.774-1.095-.774-1.095 0z" style="fill:#dcedc8;fill-opacity:1;stroke:none;stroke-width:1.05833;stroke-linecap:round;stroke-linejoin:round" transform="translate(1.058 -3.281)"/><path d="M237.151 195.088c.81-.404 1.676-.574 2.572-.618.697.022 1.472.113 2.041.56.088.07.16.158.24.237.478.656.414 1.188.131 1.907-.448.994-1.35 1.596-2.145 2.285-.413.204-.126.789.288.586.219-.055.447-.08.656-.164 1.021-.41 1.77-1.39 2.224-2.352.06-.19.14-.375.181-.57.192-.9-.13-1.72-.752-2.367-.13-.102-.25-.215-.387-.306-.74-.491-1.655-.638-2.525-.642-1.016.067-2.005.255-2.912.744-.495.275-.107.974.388.7zM241.72 200.544c-.045.138-.107.27-.135.412-.115.588.02 1.304.447 1.747.116.12.267.2.401.3.16.056.315.133.481.166.642.128 1.34-.085 1.836-.503.119-.1.213-.225.32-.337.074-.163.174-.317.222-.49.183-.656-.08-1.35-.543-1.82-.111-.112-.245-.2-.367-.3-.534-.307-1.177-.487-1.77-.211-.145.067-.307.136-.397.267-.107.155-.106.361-.158.542-.21.36.298.655.508.296.348-.076.02.018.338-.141.284-.141.579-.083.85.054.385.273.695.63.57 1.134-.33.413-.814.662-1.348.524-.056-.026-.118-.041-.169-.077-.323-.229-.329-.706-.273-1.055.36-.575-.454-1.083-.813-.508zM247.014 196.227c-.258 1.162-.399 2.347-.524 3.53-.027.544-.111 1.103-.065 1.65.012.14.05.277.075.416-.05.43.56.5.609.07.056-.134.128-.262.17-.4.157-.527.14-1.091.217-1.63.123-1.167.275-2.332.433-3.495.1-.647-.815-.787-.914-.14zM248.665 201.404c.524.293 1.107.575 1.727.504.123-.014.242-.054.363-.082.783-.328.932-.882.845-1.67-.15-.552-.526-1.113-1.125-1.244-.123-.027-.252-.016-.378-.025-.462.09-1.02.398-1.178.878-.043.13-.027.272-.041.408-.129.28.266.462.395.182.075-.056.155-.105.225-.168.197-.18.324-.432.596-.519.38-.069.693.245.82.578.061.365.064.698-.329.855-.534.134-1.049-.093-1.512-.349-.461-.288-.869.364-.408.652z" style="fill:#dcedc8;fill-opacity:1;stroke:none;stroke-width:1.05833;stroke-linecap:round;stroke-linejoin:round" transform="translate(1.058 -3.281)"/><path d="m251.4 201.766.447.001c.253.12.423-.239.169-.359l-.181-.295c-.462-.308-.898.345-.436.653zM253.637 199.62c-.01.551-.176 1.39-.013 1.916.032.102.098.19.147.285.012.366.53.349.518-.018.043-.076.099-.146.13-.228.22-.586.13-1.256.224-1.863.065-.712-.941-.803-1.006-.091z" style="fill:#dcedc8;fill-opacity:1;stroke:none;stroke-width:1.05833;stroke-linecap:round;stroke-linejoin:round" transform="translate(1.058 -3.281)"/><path d="M254.55 200.213c.45-.26.923-.505 1.453-.432.173.028.511.118.44.36-.011.337-.18.655-.323.955-.141.324-.19.435-.124.776-.167.382.372.618.54.237.052-.01.113 0 .158-.03.181-.115.263-.372.368-.543.249-.537.486-1.091.333-1.693-.042-.1-.069-.206-.124-.299-.252-.422-.747-.582-1.205-.639-.751-.026-1.335.188-1.968.585-.511.32-.06 1.042.452.723zM258.162 200.543c.079.623.218 1.3.653 1.783.09.1.203.18.305.27.694.453 1.424.322 2.14.012.503-.293.957-.703 1.154-1.267.041-.117.06-.24.09-.36-.003-.13.014-.264-.007-.394-.084-.548-.479-1.086-.955-1.364-.155-.09-.328-.144-.492-.216-.748-.18-1.642-.217-2.25.353-.1.094-.17.217-.254.325-.115.495-.138.255.07.72.01.198.29.184.28-.014.18-.09.093-.04.263-.152.448-.349.979-.43 1.53-.303.088.027.182.04.266.08.303.141.562.429.619.76-.068.424-.355.714-.715.929-.36.165-.742.316-1.124.132-.464-.3-.597-.868-.67-1.384-.064-.639-.967-.548-.904.09z" style="fill:#dcedc8;fill-opacity:1;stroke:none;stroke-width:1.05833;stroke-linecap:round;stroke-linejoin:round" transform="translate(1.058 -3.281)"/><path d="M262.995 195.671c-.626 1.386-.878 2.913-1.154 4.4-.193.73-.148 1.466-.093 2.208-.061.542.706.63.768.087.216-.68.431-1.362.504-2.076.195-1.045.388-2.092.644-3.125.053-.214.124-.424.173-.64.034-.147.052-.297.077-.445.29-.65-.63-1.06-.92-.409zM182.756 192.571c.585-.78 1.247-1.492 1.944-2.172a6.78 6.78 0 0 1 2.573-1.533c1.088-.34 2.232-.45 3.363-.549a49.69 49.69 0 0 1 3.807-.225c1.475-.03 2.951-.027 4.427-.027 1.214-.014 2.426.075 3.638.126.912.08 1.824.152 2.739.19.933.08 1.847-.01 2.754-.228.82-.207 1.572-.568 2.275-1.03.676-.467 1.13-1.141 1.544-1.836.306-.522.632-1.034.896-1.579.171-.383.25-.787.228-1.204-.051-.339-.26-.583-.548-.746-.577-.233-.864.126-1.045.62-.17.485-.118 1-.048 1.5.074.643.312 1.238.619 1.802.385.63.952 1.052 1.592 1.392.676.344 1.402.568 2.132.763.913.211 1.841.326 2.775.392 1.098.09 2.19-.022 3.267-.24.72-.206 1.696-.428 2.304-.885.151-.114.266-.27.4-.405.287-.11.13-.517-.157-.406-.191-.01-.382-.046-.573-.029-.182.016-.356.082-.533.127-.56.142-1.116.3-1.684.41-.97.2-1.954.296-2.945.226-.864-.053-1.725-.137-2.573-.317-.65-.148-1.298-.329-1.897-.628-.452-.229-.86-.496-1.141-.931-.25-.447-.44-.92-.496-1.433-.05-.314-.1-.649-.008-.959.022-.06.128-.208.072-.177-.07.038-.11.114-.174.16-.118.088-.308.051-.428-.014-.025-.022-.077-.163-.041-.093.035-.035.015-.02 0 .081a1.99 1.99 0 0 1-.13.498c-.246.517-.559.999-.846 1.493-.323.546-.666 1.09-1.19 1.466-.593.392-1.222.707-1.915.882a7.488 7.488 0 0 1-2.44.204 60.973 60.973 0 0 1-2.739-.183c-1.228-.05-2.455-.14-3.684-.125-1.487 0-2.974 0-4.46.038-1.295.044-2.588.12-3.872.302-1.208.125-2.425.278-3.587.643-1.126.397-2.067.934-2.938 1.763-.729.712-1.42 1.457-2.033 2.273-.426.548.35 1.151.776.603z" style="fill:#dcedc8;fill-opacity:1;stroke:none;stroke-width:1.05833;stroke-linecap:round;stroke-linejoin:round" transform="translate(1.058 -3.281)"/></svg>