<svg xmlns="http://www.w3.org/2000/svg" xml:space="preserve" width="512" height="512" viewBox="0 0 135.467 135.467"><g style="fill:#dcedc8;fill-opacity:1;stroke-width:1.78764"><path d="M98.822 71.025a4.234 4.234 0 0 0-1.654.319l-2.891 1.191c-.062.102-.12.205-.182.307-2.594 4.275-5.353 8.414-8.022 12.23l10.28-4.236 12.797 34.084-15.697 6.468-11.495-30.615a342.421 342.421 0 0 1-6.045 7.985l8.095 21.562-20.555-6.469-7.108-18.93c-4.381-5.766-10.037-13.598-15.106-21.991-.15-.249-.294-.5-.443-.749L19.299 81.04a4.234 4.234 0 0 0-2.352 5.402l15.776 42.014a4.234 4.234 0 0 0 5.574 2.426l22.113-9.112 29.344 9.235a4.234 4.234 0 0 0 2.191-.094 4.233 4.233 0 0 0 .569.02 4.233 4.233 0 0 0 .074-.047 4.234 4.234 0 0 0 .05-.002l23.53-9.696a4.234 4.234 0 0 0 2.351-5.402L102.744 73.77a4.234 4.234 0 0 0-3.922-2.745zm-44.404 2.933c2.742 4.155 5.48 7.985 8.001 11.394L70.835 88a294.114 294.114 0 0 0 6.078-8.311l-1.855.764zm-12.405 6.878 12.798 34.084-15.698 6.468-12.797-34.083Z" style="fill:#dcedc8;fill-opacity:1;stroke-width:1.78764;stroke-linecap:round;stroke-linejoin:round" transform="translate(29.843 29.843) scale(.5594)"/><g style="fill:#dcedc8;fill-opacity:1;stroke-width:1.78764"><path d="M112.98-11.053c-20.307.046-36.812 16.894-36.859 37.463-.021 9.292 5.401 20.025 11.654 30.38 6.254 10.353 13.555 20.066 18.016 25.757a3.705 3.705 0 0 0 .006.01c3.498 4.436 10.484 4.413 13.984-.016a3.705 3.705 0 0 0 .006-.01c4.486-5.71 11.83-15.454 18.13-25.834 6.298-10.38 11.767-21.128 11.788-30.42.047-20.569-16.417-37.376-36.724-37.33zm.018 7.408c16.227-.036 29.337 13.27 29.299 29.905-.014 6.045-4.676 16.642-10.715 26.594-6.037 9.948-13.236 19.519-17.617 25.095-.75.947-1.622.943-2.35.02-4.355-5.556-11.508-15.092-17.498-25.01-5.992-9.922-10.601-20.486-10.588-26.531C83.567 9.794 96.771-3.608 113-3.645Z" style="fill:#dcedc8;fill-opacity:1;stroke-width:1.78764;stroke-linecap:round;stroke-linejoin:round" transform="translate(4.57 38.413) scale(.5594)"/><path d="M126.162 25.126h-26.52V13.459h26.52m-3.315 25.667a3.315 3.5 0 0 1-3.315-3.5 3.315 3.5 0 0 1 3.315-3.5 3.315 3.5 0 0 1 3.315 3.5 3.315 3.5 0 0 1-3.315 3.5m-19.89 0a3.315 3.5 0 0 1-3.315-3.5 3.315 3.5 0 0 1 3.315-3.5 3.315 3.5 0 0 1 3.315 3.5 3.315 3.5 0 0 1-3.315 3.5m-7.735-2.333c0 2.053.862 3.897 2.21 5.18v4.153a2.21 2.333 0 0 0 2.21 2.334h2.21a2.21 2.333 0 0 0 2.21-2.334v-2.333h17.68v2.333a2.21 2.333 0 0 0 2.21 2.334h2.21a2.21 2.333 0 0 0 2.21-2.334v-4.153a7.141 7.141 0 0 0 2.21-5.18V13.459c0-8.167-7.912-9.334-17.68-9.334s-17.68 1.167-17.68 9.334z" style="fill:#dcedc8;fill-opacity:1;stroke-width:.472975" transform="translate(4.57 38.413) scale(.5594)"/></g></g></svg>