<svg xmlns="http://www.w3.org/2000/svg" xml:space="preserve" width="2048" height="512" viewBox="0 0 541.867 135.467"><rect width="541.868" height="135.467" x="-.001" ry="22.819" style="fill:#1b5e20;fill-opacity:1;stroke-width:16.9334;stroke-linecap:round;stroke-linejoin:round"/><g style="fill:#dcedc8;fill-opacity:1;stroke-width:1.32114"><path d="M98.822 71.025a4.234 4.234 0 0 0-1.654.319l-2.891 1.191c-.062.102-.12.205-.182.307-2.594 4.275-5.353 8.414-8.022 12.23l10.28-4.236 12.797 34.084-15.697 6.468-11.495-30.615a342.421 342.421 0 0 1-6.045 7.985l8.095 21.562-20.555-6.469-7.108-18.93c-4.381-5.766-10.037-13.598-15.106-21.991-.15-.249-.294-.5-.443-.749L19.299 81.04a4.234 4.234 0 0 0-2.352 5.402l15.776 42.014a4.234 4.234 0 0 0 5.574 2.426l22.113-9.112 29.344 9.235a4.234 4.234 0 0 0 2.191-.094 4.233 4.233 0 0 0 .569.02 4.233 4.233 0 0 0 .074-.047 4.234 4.234 0 0 0 .05-.002l23.53-9.696a4.234 4.234 0 0 0 2.351-5.402L102.744 73.77a4.234 4.234 0 0 0-3.922-2.745zm-44.404 2.933c2.742 4.155 5.48 7.985 8.001 11.394L70.835 88a294.114 294.114 0 0 0 6.078-8.311l-1.855.764zm-12.405 6.878 12.798 34.084-15.698 6.468-12.797-34.083Z" style="fill:#dcedc8;fill-opacity:1;stroke-width:1.32114;stroke-linecap:round;stroke-linejoin:round" transform="matrix(.75693 0 0 .75693 20.175 16.565)"/><g style="fill:#dcedc8;fill-opacity:1;stroke-width:1.32114"><path d="M112.98-11.053c-20.307.046-36.812 16.894-36.859 37.463-.021 9.292 5.401 20.025 11.654 30.38 6.254 10.353 13.555 20.066 18.016 25.757a3.705 3.705 0 0 0 .006.01c3.498 4.436 10.484 4.413 13.984-.016a3.705 3.705 0 0 0 .006-.01c4.486-5.71 11.83-15.454 18.13-25.834 6.298-10.38 11.767-21.128 11.788-30.42.047-20.569-16.417-37.376-36.724-37.33zm.018 7.408c16.227-.036 29.337 13.27 29.299 29.905-.014 6.045-4.676 16.642-10.715 26.594-6.037 9.948-13.236 19.519-17.617 25.095-.75.947-1.622.943-2.35.02-4.355-5.556-11.508-15.092-17.498-25.01-5.992-9.922-10.601-20.486-10.588-26.531C83.567 9.794 96.771-3.608 113-3.645Z" style="fill:#dcedc8;fill-opacity:1;stroke-width:1.32114;stroke-linecap:round;stroke-linejoin:round" transform="matrix(.75693 0 0 .75693 -14.022 28.162)"/><path d="M126.162 25.126h-26.52V13.459h26.52m-3.315 25.667a3.315 3.5 0 0 1-3.315-3.5 3.315 3.5 0 0 1 3.315-3.5 3.315 3.5 0 0 1 3.315 3.5 3.315 3.5 0 0 1-3.315 3.5m-19.89 0a3.315 3.5 0 0 1-3.315-3.5 3.315 3.5 0 0 1 3.315-3.5 3.315 3.5 0 0 1 3.315 3.5 3.315 3.5 0 0 1-3.315 3.5m-7.735-2.333c0 2.053.862 3.897 2.21 5.18v4.153a2.21 2.333 0 0 0 2.21 2.334h2.21a2.21 2.333 0 0 0 2.21-2.334v-2.333h17.68v2.333a2.21 2.333 0 0 0 2.21 2.334h2.21a2.21 2.333 0 0 0 2.21-2.334v-4.153a7.141 7.141 0 0 0 2.21-5.18V13.459c0-8.167-7.912-9.334-17.68-9.334s-17.68 1.167-17.68 9.334z" style="fill:#dcedc8;fill-opacity:1;stroke-width:.349549" transform="matrix(.75693 0 0 .75693 -14.022 28.162)"/></g></g><path d="M198.123 36.304v62.859h-12.607V58.278l-16.84 40.885h-9.546L142.2 58.278v40.885H129.59V36.304h14.319l19.992 46.739 19.992-46.739zm4.555 37.733q0-7.564 2.972-13.418 3.061-5.853 8.195-9.005 5.222-3.152 11.616-3.152 5.584 0 9.727 2.251 4.232 2.252 6.753 5.674v-7.115h12.698v49.89H241.94V91.87q-2.43 3.51-6.753 5.852-4.234 2.252-9.816 2.252-6.304 0-11.527-3.242-5.134-3.242-8.195-9.095-2.972-5.944-2.972-13.599zm39.263.18q0-4.592-1.8-7.834-1.802-3.332-4.863-5.043-3.063-1.801-6.574-1.801-3.512 0-6.484 1.711-2.972 1.712-4.863 5.042-1.802 3.243-1.802 7.745 0 4.503 1.801 7.926 1.892 3.331 4.863 5.132 3.063 1.801 6.484 1.801 3.513 0 6.574-1.711 3.062-1.8 4.863-5.042 1.801-3.333 1.801-7.926zm33.012-17.74q2.43-3.423 6.664-5.673 4.323-2.342 9.816-2.342 6.394 0 11.527 3.152 5.223 3.152 8.195 9.005 3.062 5.764 3.062 13.418 0 7.655-3.062 13.599-2.972 5.853-8.195 9.095-5.133 3.242-11.527 3.242-5.494 0-9.727-2.252-4.142-2.25-6.753-5.673v30.89h-12.608V49.272h12.608zm26.386 17.56q0-4.502-1.892-7.745-1.8-3.331-4.862-5.042-2.972-1.711-6.485-1.711-3.422 0-6.483 1.8-2.972 1.712-4.862 5.044-1.802 3.331-1.802 7.835 0 4.502 1.8 7.834 1.892 3.333 4.863 5.134 3.063 1.711 6.484 1.711 3.513 0 6.485-1.802 3.061-1.8 4.862-5.132 1.892-3.333 1.892-7.926zm52.913 25.126-22.874-28.007v28.007h-12.607V36.304h12.607v28.188l22.874-28.187h15.22l-25.936 31.16 26.655 31.699zm41.746.81q-7.204 0-12.968-3.151-5.762-3.242-9.095-9.097-3.241-5.853-3.241-13.507 0-7.655 3.331-13.509 3.423-5.854 9.276-9.005 5.854-3.242 13.058-3.242t13.057 3.242q5.855 3.151 9.186 9.005 3.422 5.855 3.422 13.508 0 7.655-3.512 13.508-3.422 5.855-9.365 9.096-5.854 3.152-13.148 3.152zm0-10.986q3.423 0 6.394-1.621 3.063-1.712 4.863-5.044 1.802-3.331 1.802-8.104 0-7.115-3.783-10.897-3.692-3.872-9.095-3.872-5.404 0-9.095 3.872-3.603 3.782-3.603 10.897 0 7.113 3.512 10.986 3.602 3.783 9.005 3.783zm92.628-40.435q9.186 0 14.768 5.674 5.675 5.583 5.675 15.67v29.267H496.46V71.606q0-5.854-2.972-8.916-2.972-3.15-8.105-3.15-5.133 0-8.195 3.15-2.971 3.063-2.971 8.916v27.557H461.61V71.606q0-5.854-2.972-8.916-2.972-3.15-8.105-3.15-5.223 0-8.285 3.15-2.972 3.063-2.972 8.916v27.557h-12.607v-49.89h12.607v6.033q2.431-3.151 6.214-4.952 3.872-1.802 8.465-1.802 5.854 0 10.446 2.521 4.593 2.431 7.115 7.024 2.431-4.322 7.024-6.933 4.683-2.612 10.086-2.612z" aria-label="MapKom" style="font-weight:600;font-size:92.6042px;font-family:Poppins;-inkscape-font-specification:&quot;Poppins Semi-Bold&quot;;letter-spacing:-4.7625px;fill:#dcedc8;stroke-width:16.9333;stroke-linecap:round;stroke-linejoin:round"/></svg>